<svg width="8" height="8" viewBox="0 0 8 8" fill="none" xmlns="http://www.w3.org/2000/svg">
<path d="M4 8C3.45178 8 2.9357 7.89575 2.45178 7.68726C1.96785 7.47877 1.54315 7.19294 1.17766 6.82976C0.812183 6.46658 0.524535 6.04456 0.314721 5.56368C0.104907 5.08281 0 4.56999 0 4.02522V0.171501L2.4264 1.96721C2.61591 1.67802 2.87817 1.32493 3.2132 0.907945C3.54822 0.490963 3.81049 0.188314 4 0C4.19628 0.188314 4.46024 0.492644 4.79188 0.912989C5.12352 1.33333 5.38748 1.69147 5.58376 1.98739L8 0.171501V4.02522C8 4.56999 7.89509 5.08281 7.68528 5.56368C7.47547 6.04456 7.18782 6.46658 6.82233 6.82976C6.45685 7.19294 6.03384 7.47877 5.5533 7.68726C5.07276 7.89575 4.55499 8 4 8Z" fill="url(#paint0_linear_138_193)"/>
<defs>
<linearGradient id="paint0_linear_138_193" x1="4" y1="0" x2="4" y2="8" gradientUnits="userSpaceOnUse">
<stop offset="0.00961536" stop-color="#800020"/>
<stop offset="1" stop-color="#4A148C"/>
</linearGradient>
</defs>
</svg>
